
<svg width="200" height="100" xmlns="http://www.w3.org/2000/svg">
  <defs>
    <!-- Filtro para sombra sutil -->
    <filter id="shadow" x="-20%" y="-20%" width="140%" height="140%">
      <feDropShadow dx="2" dy="2" stdDeviation="2" flood-opacity="0.3" flood-color="#000"/>
    </filter>
    
    <!-- Gradiente para las letras -->
    <linearGradient id="letterGradient" x1="0%" y1="0%" x2="100%" y2="100%">
      <stop offset="0%" style="stop-color:#2c3e50;stop-opacity:1" />
      <stop offset="100%" style="stop-color:#34495e;stop-opacity:1" />
    </linearGradient>
  </defs>
  
  <!-- Letra I -->
  <g transform="translate(30,20)">
    <!-- Trazo principal de la I -->
    <path d="M 15 15 Q 20 10 25 15 L 25 45 Q 20 50 15 45 Z" 
          fill="url(#letterGradient)" 
          stroke="#2c3e50" 
          stroke-width="1"
          filter="url(#shadow)"/>
    
    <!-- Serifa superior -->
    <path d="M 8 15 Q 15 8 22 12 Q 28 15 22 18 Q 15 22 8 15" 
          fill="url(#letterGradient)" 
          stroke="#2c3e50" 
          stroke-width="1"/>
    
    <!-- Serifa inferior -->
    <path d="M 8 45 Q 15 38 22 42 Q 28 45 22 48 Q 15 52 8 45" 
          fill="url(#letterGradient)" 
          stroke="#2c3e50" 
          stroke-width="1"/>
    
    <!-- Punto de la I estilizado -->
    <circle cx="20" cy="5" r="3" 
            fill="url(#letterGradient)" 
            stroke="#2c3e50" 
            stroke-width="1"
            filter="url(#shadow)"/>
  </g>
  
  <!-- Letra F -->
  <g transform="translate(80,20)">
    <!-- Trazo vertical principal -->
    <path d="M 15 15 Q 20 10 25 15 L 25 45 Q 20 50 15 45 Z" 
          fill="url(#letterGradient)" 
          stroke="#2c3e50" 
          stroke-width="1"
          filter="url(#shadow)"/>
    
    <!-- Trazo horizontal superior -->
    <path d="M 15 15 Q 20 12 35 15 Q 45 18 40 22 Q 35 25 25 22 Q 20 20 15 18" 
          fill="url(#letterGradient)" 
          stroke="#2c3e50" 
          stroke-width="1"/>
    
    <!-- Trazo horizontal medio -->
    <path d="M 15 30 Q 20 27 30 30 Q 35 33 30 36 Q 25 39 20 36 Q 15 33 15 30" 
          fill="url(#letterGradient)" 
          stroke="#2c3e50" 
          stroke-width="1"/>
    
    <!-- Serifa inferior -->
    <path d="M 8 45 Q 15 38 22 42 Q 28 45 22 48 Q 15 52 8 45" 
          fill="url(#letterGradient)" 
          stroke="#2c3e50" 
          stroke-width="1"/>
    
    <!-- Decoración floral pequeña -->
    <path d="M 42 12 Q 48 8 52 12 Q 48 16 42 12" 
          fill="url(#letterGradient)" 
          opacity="0.7"/>
  </g>
  
  <!-- Línea decorativa debajo -->
  <path d="M 20 75 Q 100 70 180 75" 
        stroke="url(#letterGradient)" 
        stroke-width="2" 
        fill="none" 
        opacity="0.6"/>
  
  <!-- Pequeños adornos laterales -->
  <circle cx="10" cy="75" r="2" fill="url(#letterGradient)" opacity="0.5"/>
  <circle cx="190" cy="75" r="2" fill="url(#letterGradient)" opacity="0.5"/>
</svg>